<svg id="グループ_349" data-name="グループ 349" xmlns="http://www.w3.org/2000/svg" width="54.802" height="54.802" viewBox="0 0 54.802 54.802">
  <rect id="長方形_526" data-name="長方形 526" width="54.802" height="54.802" rx="3" transform="translate(0 0)" fill="#2b2c30"/>
  <path id="パス_755" data-name="パス 755" d="M11.83,0H.016L0,16.418,14.531,27.936v6.389h4.383v-8.5l-14.5-11.7V4.354h3.48Z" transform="translate(10.574 10.188)" fill="#fff"/>
  <path id="パス_758" data-name="パス 758" d="M0,0H4.02V4.284L18.885,16.213v5.32H14.6V18.1L0,6.021Z" transform="translate(17.959 16.056)" fill="#fff"/>
  <path id="パス_759" data-name="パス 759" d="M0,0H4.332V6.607l14.74,11.743V34.385H7.16l3.949-3.945h3.623V20.41L0,8.776Z" transform="translate(25.052 10.182)" fill="#fff"/>
  <path id="パス_770" data-name="パス 770" d="M0,0V11.621H11.852L7.906,7.632H3.93V3.793Z" transform="translate(10.638 32.856)" fill="#fff"/>
  <path id="パス_771" data-name="パス 771" d="M0,0V11.622H11.853L7.907,7.633H3.929V3.793Z" transform="translate(44.124 21.802) rotate(180)" fill="#fff"/>
</svg>
